<svg width="16" height="16" viewBox="0 0 16 16" fill="none" xmlns="http://www.w3.org/2000/svg">
<circle cx="8" cy="8" r="8" fill="#2F80ED"/>
<path d="M7.99 11.12C7.54333 11.12 7.13333 11.04 6.76 10.88C6.39333 10.7133 6.1 10.4667 5.88 10.14C5.66667 9.80667 5.55333 9.39 5.54 8.89H6.54C6.54667 9.14333 6.60667 9.37333 6.72 9.58C6.83333 9.78667 6.99667 9.95333 7.21 10.08C7.43 10.2 7.69 10.26 7.99 10.26C8.29 10.26 8.54 10.2033 8.74 10.09C8.94667 9.97667 9.1 9.82333 9.2 9.63C9.30667 9.43667 9.36 9.22 9.36 8.98C9.36 8.69333 9.28667 8.46 9.14 8.28C9 8.09333 8.80667 7.95333 8.56 7.86C8.32 7.76667 8.05 7.72 7.75 7.72H7.23V6.89H7.75C8.18333 6.89 8.52667 6.79 8.78 6.59C9.04 6.39 9.17 6.11 9.17 5.75C9.17 5.45667 9.07 5.21667 8.87 5.03C8.67 4.83667 8.37667 4.74 7.99 4.74C7.59667 4.74 7.29 4.84667 7.07 5.06C6.85 5.27333 6.72333 5.54333 6.69 5.87H5.69C5.71 5.47667 5.81667 5.13 6.01 4.83C6.21 4.52333 6.47667 4.29 6.81 4.13C7.15 3.96333 7.54333 3.88 7.99 3.88C8.46333 3.88 8.86 3.96333 9.18 4.13C9.50667 4.29 9.75333 4.50667 9.92 4.78C10.0867 5.05333 10.17 5.35333 10.17 5.68C10.17 5.93333 10.12 6.17 10.02 6.39C9.92667 6.60333 9.79 6.79 9.61 6.95C9.43667 7.10333 9.22 7.21 8.96 7.27C9.22667 7.32333 9.46333 7.42667 9.67 7.58C9.88333 7.73333 10.05 7.93 10.17 8.17C10.2967 8.40333 10.36 8.67667 10.36 8.99C10.36 9.37 10.27 9.72333 10.09 10.05C9.91 10.37 9.64333 10.63 9.29 10.83C8.94333 11.0233 8.51 11.12 7.99 11.12Z" fill="white"/>
</svg>
